<svg width="21" height="21" viewBox="0 0 21 21" fill="none" xmlns="http://www.w3.org/2000/svg">
<path opacity="0.5" d="M17.125 0.65625C17.5547 0.65625 17.9062 1.00781 17.9062 1.4375V2.84375H19.3125C19.7422 2.84375 20.0938 3.19531 20.0938 3.625C20.0938 4.05469 19.7422 4.40625 19.3125 4.40625H17.9062V5.8125C17.9062 6.24219 17.5547 6.59375 17.125 6.59375C16.6953 6.59375 16.3438 6.24219 16.3438 5.8125V4.40625H14.9375C14.5078 4.40625 14.1562 4.05469 14.1562 3.625C14.1562 3.19531 14.5078 2.84375 14.9375 2.84375H16.3438V1.4375C16.3438 1.00781 16.6953 0.65625 17.125 0.65625ZM10.25 5.5C10.5625 5.5 10.9141 5.57812 11.1875 5.73438L19.3906 9.21094C19.8984 9.44531 20.25 9.95312 20.25 10.5C20.25 11.0859 19.8984 11.5938 19.3906 11.8281L11.1875 15.3047C10.9141 15.4609 10.5625 15.5 10.25 15.5C9.89844 15.5 9.58594 15.4609 9.27344 15.3047L1.07031 11.8281C0.5625 11.5938 0.25 11.0859 0.25 10.5C0.25 9.95312 0.5625 9.44531 1.07031 9.21094L9.27344 5.73438C9.58594 5.57812 9.89844 5.5 10.25 5.5ZM10.0156 7.45312L2.82812 10.5L10.0156 13.5859C10.0938 13.625 10.1719 13.625 10.25 13.625C10.3281 13.625 10.4062 13.625 10.4453 13.5859L17.6328 10.5L10.4453 7.45312C10.4062 7.41406 10.3281 7.375 10.25 7.375C10.1719 7.375 10.0938 7.41406 10.0156 7.45312ZM2.32031 13.7031L4.70312 14.7188L2.82812 15.5L10.0156 18.5859C10.0938 18.625 10.1719 18.625 10.25 18.625C10.3281 18.625 10.4062 18.625 10.4453 18.5859L17.6328 15.5L15.7969 14.7188L18.1406 13.7031L19.3906 14.2109C19.8984 14.4453 20.25 14.9531 20.25 15.5C20.25 16.0859 19.8984 16.5938 19.3906 16.8281L11.1875 20.3047C10.9141 20.4609 10.5625 20.5 10.25 20.5C9.89844 20.5 9.58594 20.4609 9.27344 20.3047L1.07031 16.8281C0.5625 16.5938 0.25 16.0859 0.25 15.5C0.25 14.9531 0.5625 14.4453 1.07031 14.2109L2.32031 13.7031Z" fill="#0E6CDD"/>
</svg>
