<svg width="20" height="19" viewBox="0 0 20 19" fill="none" xmlns="http://www.w3.org/2000/svg">
<path opacity="0.5" d="M8.78906 17.8203L8.71094 17.7031L1.875 11.375C0.664062 10.2422 0 8.67969 0 7.03906V6.92188C0 4.1875 1.95312 1.80469 4.64844 1.29688C6.17188 0.984375 7.73438 1.33594 9.02344 2.23438C9.375 2.46875 9.6875 2.78125 10 3.09375C10.1562 2.9375 10.3125 2.74219 10.5078 2.58594C10.6641 2.46875 10.8203 2.35156 10.9766 2.23438C12.2266 1.33594 13.7891 0.984375 15.3125 1.29688C18.0469 1.80469 20 4.1875 20 6.92188V7.03906C20 8.67969 19.2969 10.2422 18.0859 11.375L11.25 17.7031L11.1719 17.8203C10.8594 18.0938 10.4297 18.2891 10 18.2891C9.53125 18.2891 9.14062 18.0938 8.78906 17.8203ZM9.33594 5.16406C9.29688 5.16406 9.29688 5.16406 9.29688 5.125L8.59375 4.34375C7.69531 3.32812 6.32812 2.89844 5 3.13281C3.16406 3.48438 1.875 5.08594 1.875 6.92188V7.03906C1.875 8.17188 2.30469 9.22656 3.125 9.96875L10 16.3359L16.8359 9.96875C17.6562 9.22656 18.125 8.17188 18.125 7.03906V6.92188C18.125 5.08594 16.7969 3.48438 14.9609 3.13281C13.6328 2.89844 12.2656 3.32812 11.3672 4.34375L10.6641 5.125C10.6641 5.16406 10.6641 5.16406 10.625 5.20312C10.4688 5.35938 10.2344 5.47656 10 5.47656C9.72656 5.47656 9.49219 5.35938 9.33594 5.20312V5.16406Z" fill="#0E6CDD"/>
</svg>
